# xmcd CD database file
#
# Track frame offsets:
#	150
#	11490
#	23904
#	37135
#	51529
#	62499
#	76084
#	86835
#	102698
#	116180
#	130764
#	144004
#	156995
#	168148
#	179786
#	191397
#	204384
#	215945
#
# Disc length: 3049 seconds
#
# Revision: 0
# Processed by: cddbd v1.5.1PL0 Copyright (c) Steve Scherf et al.
# Submitted via: CDex 1.51
#
DISCID=050be712
DTITLE=Count Basie - The Great Big Band Collection [Joan #7148, 2002]
DYEAR=1947
DGENRE=Jazz
TTITLE0=Mine, Too
TTITLE1=Walking Slow Behind You
TTITLE2=Normania
TTITLE3=Rocky Mountain Blues
TTITLE4=Rat Race
TTITLE5=Solid as a Rock
TTITLE6=Sweets
TTITLE7=Nails
TTITLE8=Beaver Junction
TTITLE9=Just an Old Manuscript
TTITLE10=Katy
TTITLE11=She's a Wine-O
TTITLE12=Did You Ever See Jackie Robinson Hit That Ball?
TTITLE13=Shoutin' Blues
TTITLE14=After You've Gone
TTITLE15=St. Louis Baby
TTITLE16=Wonderful Thing
TTITLE17=The Slider
EXTD=YEAR: 1947
EXTT0=
EXTT1=
EXTT2=
EXTT3=
EXTT4=
EXTT5=
EXTT6=
EXTT7=
EXTT8=
EXTT9=
EXTT10=
EXTT11=
EXTT12=
EXTT13=
EXTT14=
EXTT15=
EXTT16=
EXTT17=
PLAYORDER=
